<svg t="1677590762053" class="icon" viewBox="0 0 1024 1024" version="1.1" xmlns="http://www.w3.org/2000/svg" p-id="2810"
  width="200" height="200">
  <path
    d="M980.08707 178.96186l-134.548837-135.144186c-26.790698-26.790698-62.511628-41.674419-101.209303-41.674418-38.102326 0-74.418605 14.883721-101.209302 41.674418l-215.516279 215.516279c-26.790698 26.790698-41.674419 62.511628-41.674419 101.209303 0 9.525581 1.190698 19.051163 2.976744 28.576744-9.525581-1.786047-19.051163-2.976744-28.576744-2.976744-38.102326 0-73.823256 14.883721-101.209302 41.674418l-215.516279 215.516279c-26.790698 26.790698-41.674419 62.511628-41.674419 101.209303s14.883721 73.823256 41.674419 101.209302l134.548837 134.548837c26.790698 26.790698 62.511628 41.674419 101.209302 41.674419s74.418605-14.883721 101.209303-41.674419l215.516279-215.516279c35.125581-35.125581 48.223256-83.944186 38.697674-129.190697 9.525581 1.786047 19.051163 2.976744 28.576744 2.976744 38.102326 0 73.823256-14.883721 101.209303-41.674419l215.516279-215.516279c26.790698-26.790698 41.674419-62.511628 41.674418-101.209302s-14.288372-74.418605-41.674418-101.209303z m-451.274419 518.548838l-215.516279 215.516279c-17.860465 17.860465-49.413953 17.860465-67.274419 0l-134.548837-134.548837c-8.930233-8.930233-13.693023-20.837209-13.693023-33.934884s4.762791-25.004651 13.693023-33.934884l215.516279-215.516279c8.930233-8.930233 20.837209-13.693023 33.934884-13.693023s25.004651 4.762791 33.934884 13.693023l33.934884 33.934884-117.87907 117.87907c-18.455814 18.455814-18.455814 48.818605 0 67.274418 9.525581 9.525581 21.432558 13.693023 33.934883 13.693023s24.409302-4.762791 33.934884-13.693023l117.87907-117.87907 33.934884 33.934884c16.669767 18.455814 16.669767 48.818605-1.786047 67.274419z m384-384l-215.516279 215.516279c-17.860465 17.860465-49.413953 17.860465-67.274419 0l-33.934883-33.934884 117.87907-117.87907c18.455814-18.455814 18.455814-48.818605 0-67.274418-18.455814-18.455814-48.818605-18.455814-67.274419 0l-117.87907 117.879069-33.934884-33.934883c-8.930233-8.930233-13.693023-20.837209-13.693023-33.934884s4.762791-25.004651 13.693023-33.934884l215.51628-215.516279c8.930233-8.930233 20.837209-13.693023 33.934883-13.693023 12.502326 0 25.004651 4.762791 33.934884 13.693023l134.548837 134.548837c8.930233 8.930233 13.693023 20.837209 13.693023 33.934884 0.595349 13.693023-4.762791 25.6-13.693023 34.530233z"
    fill="#FF4A4A" p-id="2811"></path>
</svg>